<svg width="44" height="45" viewBox="0 0 44 45" fill="none" xmlns="http://www.w3.org/2000/svg">
<g id="mingcute:check-fill" clip-path="url(#clip0_9_4304)">
<g id="Group">
<path id="Vector" fill-rule="evenodd" clip-rule="evenodd" d="M39.501 10.1202C40.0165 10.6359 40.3062 11.3352 40.3062 12.0644C40.3062 12.7936 40.0165 13.493 39.501 14.0087L18.8888 34.6208C18.6164 34.8933 18.293 35.1094 17.9371 35.2569C17.5812 35.4043 17.1997 35.4802 16.8144 35.4802C16.4291 35.4802 16.0477 35.4043 15.6917 35.2569C15.3358 35.1094 15.0124 34.8933 14.74 34.6208L4.499 24.3817C4.23634 24.128 4.02684 23.8245 3.88272 23.489C3.73859 23.1535 3.66273 22.7927 3.65956 22.4275C3.65639 22.0624 3.72597 21.7003 3.86424 21.3623C4.00251 21.0243 4.20671 20.7173 4.46491 20.4591C4.72312 20.2009 5.03016 19.9967 5.36812 19.8584C5.70609 19.7201 6.06821 19.6506 6.43335 19.6537C6.79849 19.6569 7.15935 19.7328 7.49486 19.8769C7.83037 20.021 8.13382 20.2305 8.3875 20.4932L16.8135 28.9192L35.6107 10.1202C35.8661 9.86462 36.1693 9.6619 36.503 9.52359C36.8368 9.38528 37.1946 9.31409 37.5558 9.31409C37.9171 9.31409 38.2749 9.38528 38.6086 9.52359C38.9424 9.6619 39.2456 9.86462 39.501 10.1202Z" fill="#AEF396"/>
</g>
</g>
<defs>
<clipPath id="clip0_9_4304">
<rect width="44" height="44" fill="white" transform="translate(0 0.75)"/>
</clipPath>
</defs>
</svg>
