<svg width="19" height="18" viewBox="0 0 19 18" fill="none" xmlns="http://www.w3.org/2000/svg">
<path d="M17.187 11.0925L17.371 9.38749C17.468 8.47749 17.533 7.87749 17.482 7.49949H17.5C17.8423 7.4994 18.1743 7.38225 18.4408 7.16747C18.7073 6.9527 18.8924 6.65324 18.9652 6.31879C19.0381 5.98434 18.9944 5.63504 18.8413 5.32886C18.6883 5.02269 18.4352 4.77806 18.1239 4.63559C17.8127 4.49313 17.4621 4.46139 17.1303 4.54566C16.7986 4.62992 16.5056 4.82512 16.3001 5.09884C16.0946 5.37256 15.9889 5.70834 16.0005 6.05043C16.0121 6.39252 16.1404 6.72035 16.364 6.97949C16.038 7.18049 15.612 7.60549 14.971 8.24449C14.476 8.73749 14.229 8.98349 13.953 9.02149C13.8001 9.0426 13.6443 9.02079 13.503 8.95849C13.249 8.84649 13.079 8.54249 12.74 7.93349L10.95 4.72449C10.741 4.34949 10.566 4.03449 10.408 3.78249C10.8083 3.57854 11.1282 3.24577 11.3163 2.83779C11.5044 2.42982 11.5496 1.97041 11.4447 1.53359C11.3399 1.09676 11.091 0.707969 10.7382 0.429851C10.3854 0.151733 9.94924 0.000488281 9.5 0.000488281C9.05077 0.000488281 8.61461 0.151733 8.26182 0.429851C7.90903 0.707969 7.66014 1.09676 7.55527 1.53359C7.45039 1.97041 7.49564 2.42982 7.68371 2.83779C7.87179 3.24577 8.19173 3.57854 8.592 3.78249C8.434 4.03549 8.259 4.34949 8.049 4.72449L6.26 7.93349C5.92 8.54249 5.75 8.84649 5.496 8.95849C5.35474 9.02079 5.19894 9.0426 5.046 9.02149C4.771 8.98349 4.524 8.73749 4.029 8.24449C3.388 7.60549 2.962 7.18049 2.636 6.97949C2.85963 6.72035 2.98791 6.39252 2.99953 6.05043C3.01116 5.70834 2.90543 5.37256 2.69991 5.09884C2.49438 4.82512 2.20142 4.62992 1.86967 4.54566C1.53791 4.46139 1.18731 4.49313 0.876078 4.63559C0.564844 4.77806 0.311697 5.02269 0.158663 5.32886C0.00562891 5.63504 -0.0380857 5.98434 0.0347764 6.31879C0.107638 6.65324 0.292694 6.9527 0.559221 7.16747C0.825748 7.38225 1.15771 7.4994 1.5 7.49949H1.518C1.467 7.87749 1.532 8.47849 1.629 9.38749L1.813 11.0925C1.915 12.0385 1.999 12.9395 2.103 13.7495H16.897C17.001 12.9395 17.085 12.0395 17.187 11.0925ZM8.412 17.9995H10.588C13.424 17.9995 14.842 17.9995 15.788 17.1525C16.201 16.7825 16.462 16.1165 16.651 15.2495H2.349C2.538 16.1165 2.799 16.7835 3.212 17.1525C4.158 17.9995 5.576 17.9995 8.412 17.9995Z" fill="#B097F6"/>
</svg>
