<svg width="19" height="19" viewBox="0 0 19 19" fill="none" xmlns="http://www.w3.org/2000/svg">
  <path id="Vector"
    d="M17.187 11.8425L17.371 10.1375C17.468 9.22749 17.533 8.62749 17.482 8.24949H17.5C17.8423 8.2494 18.1743 8.13225 18.4408 7.91747C18.7073 7.7027 18.8924 7.40324 18.9652 7.06879C19.0381 6.73434 18.9944 6.38504 18.8413 6.07886C18.6883 5.77269 18.4352 5.52806 18.1239 5.38559C17.8127 5.24313 17.4621 5.21139 17.1303 5.29566C16.7986 5.37992 16.5056 5.57512 16.3001 5.84884C16.0946 6.12256 15.9889 6.45834 16.0005 6.80043C16.0121 7.14252 16.1404 7.47035 16.364 7.72949C16.038 7.93049 15.612 8.35549 14.971 8.99449C14.476 9.48749 14.229 9.73349 13.953 9.77149C13.8001 9.7926 13.6443 9.77079 13.503 9.70849C13.249 9.59649 13.079 9.29249 12.74 8.68349L10.95 5.47449C10.741 5.09949 10.566 4.78449 10.408 4.53249C10.8083 4.32854 11.1282 3.99577 11.3163 3.58779C11.5044 3.17982 11.5496 2.72041 11.4447 2.28359C11.3399 1.84676 11.091 1.45797 10.7382 1.17985C10.3854 0.901733 9.94924 0.750488 9.5 0.750488C9.05077 0.750488 8.61461 0.901733 8.26182 1.17985C7.90903 1.45797 7.66014 1.84676 7.55527 2.28359C7.45039 2.72041 7.49564 3.17982 7.68371 3.58779C7.87179 3.99577 8.19173 4.32854 8.592 4.53249C8.434 4.78549 8.259 5.09949 8.049 5.47449L6.26 8.68349C5.92 9.29249 5.75 9.59649 5.496 9.70849C5.35474 9.77079 5.19894 9.7926 5.046 9.77149C4.771 9.73349 4.524 9.48749 4.029 8.99449C3.388 8.35549 2.962 7.93049 2.636 7.72949C2.85963 7.47035 2.98791 7.14252 2.99953 6.80043C3.01116 6.45834 2.90543 6.12256 2.69991 5.84884C2.49438 5.57512 2.20142 5.37992 1.86967 5.29566C1.53791 5.21139 1.18731 5.24313 0.876078 5.38559C0.564844 5.52806 0.311697 5.77269 0.158663 6.07886C0.00562891 6.38504 -0.0380857 6.73434 0.0347764 7.06879C0.107638 7.40324 0.292694 7.7027 0.559221 7.91747C0.825748 8.13225 1.15771 8.2494 1.5 8.24949H1.518C1.467 8.62749 1.532 9.22849 1.629 10.1375L1.813 11.8425C1.915 12.7885 1.999 13.6895 2.103 14.4995H16.897C17.001 13.6895 17.085 12.7895 17.187 11.8425ZM8.412 18.7495H10.588C13.424 18.7495 14.842 18.7495 15.788 17.9025C16.201 17.5325 16.462 16.8665 16.651 15.9995H2.349C2.538 16.8665 2.799 17.5335 3.212 17.9025C4.158 18.7495 5.576 18.7495 8.412 18.7495Z"
    fill="#B097F6" fill-opacity="0.33" />
</svg>