<svg width="25" height="25" viewBox="0 0 25 25" fill="none" xmlns="http://www.w3.org/2000/svg">
<g id="subway:error" clip-path="url(#clip0_11_5875)">
<path id="Vector" d="M12.1606 0.5C5.53249 0.5 0.160614 5.87188 0.160614 12.5C0.160614 19.1281 5.53249 24.5 12.1606 24.5C18.7887 24.5 24.1606 19.1281 24.1606 12.5C24.1606 5.87188 18.7887 0.5 12.1606 0.5ZM3.16061 12.5C3.16061 7.52656 7.19186 3.5 12.1606 3.5C14.1341 3.5 15.9575 4.14219 17.4387 5.22031L4.88093 17.7781C3.8028 16.2969 3.16061 14.4734 3.16061 12.5ZM12.1606 21.5C10.1872 21.5 8.36374 20.8578 6.88249 19.7797L19.4403 7.22187C20.5184 8.70781 21.1606 10.5266 21.1606 12.5C21.1606 17.4734 17.1294 21.5 12.1606 21.5Z" fill="white"/>
</g>
<defs>
<clipPath id="clip0_11_5875">
<rect width="24" height="24" fill="white" transform="translate(0.160614 0.5)"/>
</clipPath>
</defs>
</svg>
