<svg width="44" height="45" viewBox="0 0 44 45" fill="none" xmlns="http://www.w3.org/2000/svg">
<g id="mdi:hand-front-left" clip-path="url(#clip0_11_5871)">
<path id="Vector" d="M5.5 17.2083V29.125C5.5 37.485 12.265 44.25 20.625 44.25C28.985 44.25 35.75 37.485 35.75 29.125V10.7917C35.75 10.1839 35.5086 9.60098 35.0788 9.17121C34.649 8.74144 34.0661 8.5 33.4583 8.5C32.8505 8.5 32.2677 8.74144 31.8379 9.17121C31.4081 9.60098 31.1667 10.1839 31.1667 10.7917V22.25H29.3333V5.29167C29.3333 4.68388 29.0919 4.10098 28.6621 3.67121C28.2323 3.24144 27.6495 3 27.0417 3C26.4339 3 25.851 3.24144 25.4212 3.67121C24.9914 4.10098 24.75 4.68388 24.75 5.29167V20.4167H22.9167V2.54167C22.9167 1.93388 22.6752 1.35098 22.2455 0.921214C21.8157 0.491443 21.2328 0.25 20.625 0.25C20.0172 0.25 19.4343 0.491443 19.0045 0.921214C18.5748 1.35098 18.3333 1.93388 18.3333 2.54167V20.4167H16.5V6.20833C16.5 5.60055 16.2586 5.01765 15.8288 4.58788C15.399 4.15811 14.8161 3.91667 14.2083 3.91667C13.6005 3.91667 13.0177 4.15811 12.5879 4.58788C12.1581 5.01765 11.9167 5.60055 11.9167 6.20833V25.9717C15.5283 26.43 18.3333 29.51 18.3333 33.25H16.5C16.5 30.225 14.025 27.75 11 27.75H10.0833V17.2083C10.0833 16.6005 9.84189 16.0177 9.41212 15.5879C8.98235 15.1581 8.39945 14.9167 7.79167 14.9167C7.18388 14.9167 6.60098 15.1581 6.17121 15.5879C5.74144 16.0177 5.5 16.6005 5.5 17.2083Z" fill="#B097F6"/>
</g>
<defs>
<clipPath id="clip0_11_5871">
<rect width="44" height="44" fill="white" transform="translate(0 0.25)"/>
</clipPath>
</defs>
</svg>
