<svg width="33" height="32" viewBox="0 0 33 32" fill="none" xmlns="http://www.w3.org/2000/svg">
<g id="ph:link-bold">
<path id="Vector" d="M17.5463 23.4412C17.6861 23.5806 17.797 23.7462 17.8728 23.9285C17.9485 24.1108 17.9874 24.3063 17.9874 24.5037C17.9874 24.7012 17.9485 24.8966 17.8728 25.079C17.797 25.2613 17.6861 25.4269 17.5463 25.5662L16.8038 26.3087C15.3968 27.7157 13.4885 28.5061 11.4988 28.5061C9.50899 28.5061 7.60073 27.7157 6.19376 26.3087C4.78678 24.9018 3.99635 22.9935 3.99635 21.0037C3.99635 19.014 4.78678 17.1057 6.19376 15.6987L9.20875 12.685C10.5606 11.3298 12.3795 10.5428 14.2928 10.4851C16.2061 10.4275 18.069 11.1036 19.5 12.375C19.6477 12.5063 19.7682 12.6654 19.8544 12.8433C19.9406 13.0212 19.991 13.2143 20.0026 13.4116C20.0142 13.6089 19.9868 13.8066 19.9221 13.9934C19.8573 14.1801 19.7563 14.3523 19.625 14.5C19.4937 14.6477 19.3345 14.7682 19.1567 14.8544C18.9788 14.9406 18.7857 14.991 18.5884 15.0026C18.3911 15.0142 18.1934 14.9868 18.0066 14.922C17.8199 14.8572 17.6477 14.7563 17.5 14.625C16.6419 13.8629 15.525 13.4575 14.3779 13.4916C13.2307 13.5258 12.14 13.9969 11.3288 14.8087L8.31626 17.8187C7.4722 18.6628 6.99802 19.8076 6.99802 21.0012C6.99802 22.1949 7.4722 23.3397 8.31626 24.1837C9.16031 25.0278 10.3051 25.502 11.4988 25.502C12.6924 25.502 13.8372 25.0278 14.6813 24.1837L15.4238 23.4412C15.5631 23.3018 15.7285 23.1911 15.9106 23.1156C16.0927 23.0402 16.2879 23.0013 16.485 23.0013C16.6821 23.0013 16.8773 23.0402 17.0594 23.1156C17.2415 23.1911 17.4069 23.3018 17.5463 23.4412ZM26.8062 5.69124C25.3981 4.28643 23.4903 3.4975 21.5013 3.4975C19.5122 3.4975 17.6044 4.28643 16.1963 5.69124L15.4538 6.43374C15.172 6.71554 15.0137 7.09773 15.0137 7.49624C15.0137 7.89476 15.172 8.27695 15.4538 8.55874C15.7355 8.84053 16.1177 8.99884 16.5163 8.99884C16.9148 8.99884 17.297 8.84053 17.5788 8.55874L18.3213 7.81624C19.1653 6.97219 20.3101 6.49801 21.5038 6.49801C22.6974 6.49801 23.8422 6.97219 24.6863 7.81624C25.5303 8.66029 26.0045 9.80507 26.0045 10.9987C26.0045 12.1924 25.5303 13.3372 24.6863 14.1812L21.6725 17.1962C20.8606 18.0077 19.7692 18.4782 18.6218 18.5114C17.4743 18.5446 16.3576 18.1381 15.5 17.375C15.3523 17.2437 15.1801 17.1427 14.9934 17.0779C14.8066 17.0132 14.6089 16.9858 14.4116 16.9974C14.2143 17.009 14.0212 17.0594 13.8433 17.1456C13.6655 17.2318 13.5063 17.3523 13.375 17.5C13.2437 17.6477 13.1427 17.8199 13.078 18.0066C13.0132 18.1934 12.9858 18.3911 12.9974 18.5884C13.009 18.7857 13.0594 18.9788 13.1456 19.1567C13.2318 19.3345 13.3523 19.4937 13.5 19.625C14.93 20.8961 16.7917 21.5726 18.7041 21.5161C20.6165 21.4597 22.435 20.6745 23.7875 19.3212L26.8025 16.3075C28.209 14.8997 28.9993 12.9914 29 11.0014C29.0007 9.01143 28.2117 7.10251 26.8062 5.69374V5.69124Z" fill="#B097F6"/>
</g>
</svg>
