<svg width="52" height="55" viewBox="0 0 52 55" fill="none" xmlns="http://www.w3.org/2000/svg">
  <path id="Union" fill-rule="evenodd" clip-rule="evenodd"
    d="M37.4438 0.669501C37.1312 -0.223168 35.8688 -0.223166 35.5562 0.669503L32.5938 9.12928C32.4561 9.52245 32.0891 9.78908 31.6726 9.79852L22.7115 10.0017C22.1239 10.015 21.7508 10.4838 21.7331 10.9743H16C7.16344 10.9743 0 18.1377 0 26.9743V38.9743C0 47.8108 7.16344 54.9743 16 54.9743H28C36.8366 54.9743 44 47.8108 44 38.9743V27.7027L44.4385 28.0063C45.2161 28.5448 46.2374 27.8027 45.9656 26.8968L43.3897 18.3114C43.27 17.9124 43.4101 17.481 43.7415 17.2286L50.8718 11.797C51.6242 11.2238 51.2341 10.0232 50.2885 10.0017L41.3274 9.79852C40.9109 9.78908 40.5439 9.52245 40.4062 9.12928L37.4438 0.669501ZM24.9864 13.9743L29.2585 17.2286C29.5899 17.481 29.73 17.9124 29.6103 18.3114L27.0344 26.8968C26.7626 27.8027 27.7839 28.5448 28.5615 28.0063L35.9307 22.9035C36.2732 22.6663 36.7268 22.6663 37.0693 22.9035L40.9254 25.5737C40.9747 26.0338 41 26.5011 41 26.9743V38.9743C41 46.154 35.1797 51.9743 28 51.9743H16C8.8203 51.9743 3 46.154 3 38.9743V26.9743C3 19.7946 8.8203 13.9743 16 13.9743H24.9864Z"
    fill="#F3DF96" />
</svg>