<svg width="39" height="37" viewBox="0 0 39 37" fill="none" xmlns="http://www.w3.org/2000/svg">
<path id="Star 1" d="M18.5562 1.19524C18.8688 0.302571 20.1312 0.302571 20.4438 1.19524L24.4695 12.6915C24.6072 13.0847 24.9742 13.3513 25.3907 13.3608L37.5683 13.6369C38.5138 13.6583 38.904 14.859 38.1516 15.4321L28.462 22.8133C28.1306 23.0658 27.9904 23.4972 28.1101 23.8962L31.6106 35.5631C31.8824 36.469 30.8611 37.2111 30.0835 36.6726L20.0693 29.7382C19.7268 29.5011 19.2732 29.5011 18.9307 29.7382L8.9165 36.6726C8.13891 37.2111 7.11758 36.469 7.38939 35.5631L10.8899 23.8962C11.0096 23.4972 10.8694 23.0658 10.538 22.8133L0.84843 15.4321C0.0960467 14.859 0.48616 13.6583 1.43173 13.6369L13.6093 13.3608C14.0258 13.3513 14.3928 13.0847 14.5305 12.6915L18.5562 1.19524Z" fill="#F3DF96"/>
</svg>
