<svg width="44" height="45" viewBox="0 0 44 45" fill="none" xmlns="http://www.w3.org/2000/svg">
  <g id="mingcute:close-fill" clip-path="url(#clip0_9_4298)">
    <g id="Group">
      <path id="Vector" fill-rule="evenodd" clip-rule="evenodd"
        d="M22 26.6385L31.7222 36.3625C32.238 36.8783 32.9377 37.1682 33.6673 37.1682C34.3969 37.1682 35.0966 36.8783 35.6125 36.3625C36.1284 35.8466 36.4182 35.1469 36.4182 34.4173C36.4182 33.6877 36.1284 32.988 35.6125 32.4721L25.8867 22.75L35.6107 13.0278C35.866 12.7723 36.0685 12.4691 36.2066 12.1354C36.3448 11.8017 36.4158 11.4441 36.4157 11.0829C36.4156 10.7217 36.3444 10.3641 36.2061 10.0305C36.0678 9.69683 35.8652 9.3937 35.6097 9.13837C35.3543 8.88305 35.0511 8.68054 34.7174 8.54241C34.3836 8.40428 34.026 8.33322 33.6648 8.33331C33.3037 8.33339 32.9461 8.40461 32.6124 8.54291C32.2788 8.6812 31.9756 8.88385 31.7203 9.13929L22 18.8615L12.2778 9.13929C12.0243 8.87652 11.7209 8.66688 11.3855 8.5226C11.05 8.37832 10.6892 8.30229 10.3241 8.29894C9.95893 8.2956 9.59678 8.36501 9.25875 8.50312C8.92073 8.64124 8.61359 8.84529 8.35526 9.10337C8.09694 9.36145 7.8926 9.6684 7.75416 10.0063C7.61573 10.3442 7.54598 10.7063 7.54898 11.0714C7.55198 11.4366 7.62767 11.7975 7.77164 12.133C7.9156 12.4686 8.12496 12.7722 8.38749 13.026L18.1133 22.75L8.38932 32.4721C7.87343 32.988 7.58361 33.6877 7.58361 34.4173C7.58361 35.1469 7.87343 35.8466 8.38932 36.3625C8.90521 36.8783 9.60491 37.1682 10.3345 37.1682C11.0641 37.1682 11.7638 36.8783 12.2797 36.3625L22 26.6366V26.6385Z"
        fill="#F39696" />
    </g>
  </g>
  <defs>
    <clipPath id="clip0_9_4298">
      <rect width="44" height="44" fill="white" transform="translate(0 0.75)" />
    </clipPath>
  </defs>
</svg>